<svg xmlns="http://www.w3.org/2000/svg" width="336" height="54" viewBox="0 0 336 54"><g fill="none" fill-rule="evenodd"><path fill="#4597CB" d="M17.909 6.463V17.46h6.642V0zM0 24.146h17.909V17.46H6.71z"/><path fill="#6B478E" d="M24.543 33.351h-6.634v10.8l6.642 6.618V33.35z"/><path fill="#6B478E" d="M.009 26.631L6.71 33.31l.043.042H17.91v-6.72z"/><path fill="#4597CB" d="M24.551 24.146V17.46l-6.668 6.686z"/><path fill="#6B478E" d="M24.551 26.623h-6.634l6.634 6.72z"/><path fill="#3B5CAD" d="M24.551 17.46H17.91v6.686l6.642-6.686z"/><path fill="#211651" d="M24.543 33.351v-.008h.008l-6.634-6.712h-.008v6.72h6.642-.008z"/><path fill="#4597CB" d="M33.755 44.143V33.309h-6.643v17.46zm17.908-17.52H33.755v6.686h11.197z"/><path fill="#6B478E" d="M27.12 17.426h6.636V6.617L27.112 0v17.426zm24.543 6.72l-6.711-6.686-.043-.034H33.755v6.72z"/><path fill="#4597CB" d="M27.112 26.623v6.686l6.677-6.686z"/><path fill="#6B478E" d="M27.112 24.146h6.634l-6.634-6.72v6.72z"/><path fill="#3B5CAD" d="M27.112 33.309h6.643v-6.686l-6.643 6.686z"/><path fill="#211651" d="M27.12 17.426h.01-.019l6.634 6.72h.009v-6.72H27.12z"/><path fill="#3B5CAD" d="M57.98 18.051l1.383-1.637a9.465 9.465 0 0 0 6.806 2.795c2.655 0 4.408-1.406 4.408-3.352v-.06c0-1.834-.988-2.871-5.156-3.746-4.546-.985-6.634-2.451-6.634-5.691v-.051c0-3.095 2.741-5.383 6.497-5.383 2.52-.06 4.975.803 6.9 2.425l-1.297 1.715a8.7 8.7 0 0 0-5.706-2.143c-2.578 0-4.211 1.406-4.211 3.18v.06c0 1.86 1.014 2.906 5.362 3.831 4.348.926 6.436 2.572 6.436 5.58v.06c0 3.377-2.827 5.58-6.745 5.58a11.583 11.583 0 0 1-8.044-3.163z"/><path fill="#3B5CAD" fill-rule="nonzero" d="M75.286 6.36h2.174v2.931a6.568 6.568 0 0 1 5.595-3.24c3.497 0 6.978 2.76 6.978 7.552v.06c0 4.757-3.438 7.577-6.978 7.577a6.586 6.586 0 0 1-5.595-3.103v7.294h-2.174V6.36zm12.512 7.354v-.085c0-3.429-2.372-5.632-5.156-5.632a5.446 5.446 0 0 0-3.822 1.7 5.418 5.418 0 0 0-1.48 3.906v.06a5.41 5.41 0 0 0 1.459 3.915 5.437 5.437 0 0 0 3.817 1.716c2.862 0 5.182-2.091 5.182-5.58zm3.446 2.983v-.051c0-3.069 2.578-4.706 6.239-4.706a15.49 15.49 0 0 1 4.494.617v-.506c0-2.622-1.607-3.968-4.348-3.968-1.54.017-3.057.384-4.434 1.071l-.653-1.774a12.056 12.056 0 0 1 5.31-1.209 6.42 6.42 0 0 1 4.718 1.603 5.742 5.742 0 0 1 1.495 4.286v8.863h-2.088v-2.194a6.408 6.408 0 0 1-5.285 2.511c-2.715-.009-5.448-1.526-5.448-4.543zm10.76-1.123V14.17a15.246 15.246 0 0 0-4.298-.618c-2.74 0-4.296 1.183-4.296 3.018v.06c0 1.834 1.718 2.897 3.67 2.897 2.715-.009 4.923-1.646 4.923-3.952z"/><path fill="#3B5CAD" d="M106.996 6.36h2.14v3.806c1.108-2.452 3.23-4.166 6.015-4.055v2.332h-.172c-3.188 0-5.792 2.28-5.792 6.677v5.803h-2.174V6.35l-.017.009zm12.202 10.706V8.28h-2.036V6.36h2.036V1.971h2.174V6.36h4.632v1.92h-4.632v8.503c0 1.774.989 2.426 2.458 2.426.735.003 1.46-.17 2.114-.506v1.868a5.485 5.485 0 0 1-2.63.618c-2.337-.009-4.116-1.166-4.116-4.123z"/><path fill="#3B5CAD" fill-rule="nonzero" d="M127.611 16.697v-.051c0-3.069 2.578-4.706 6.239-4.706a15.49 15.49 0 0 1 4.494.617v-.506c0-2.622-1.607-3.968-4.348-3.968-1.54.017-3.056.384-4.434 1.071L128.9 7.38a12.056 12.056 0 0 1 5.31-1.209 6.42 6.42 0 0 1 4.719 1.603 5.742 5.742 0 0 1 1.495 4.286v8.863h-2.071v-2.194a6.408 6.408 0 0 1-5.285 2.511c-2.715-.009-5.457-1.526-5.457-4.543zm10.742-1.123V14.17a15.246 15.246 0 0 0-4.297-.618c-2.741 0-4.296 1.183-4.296 3.018v.06c0 1.834 1.718 2.897 3.669 2.897 2.741-.009 4.924-1.646 4.924-3.952z"/><path fill="#3B5CAD" d="M143.371 6.36h2.175v2.571a5.528 5.528 0 0 1 4.992-2.845c3.532 0 5.595 2.365 5.595 5.828v9.009h-2.175V12.42c0-2.7-1.469-4.397-4.038-4.397a4.302 4.302 0 0 0-3.191 1.322 4.28 4.28 0 0 0-1.183 3.238v8.34h-2.175V6.35v.009z"/><path fill="#3B5CAD" fill-rule="nonzero" d="M161.246 18.137v2.786h-2.174V.35h2.174v8.94a6.568 6.568 0 0 1 5.594-3.24c3.497 0 6.978 2.76 6.978 7.552v.06c0 4.757-3.438 7.577-6.978 7.577a6.586 6.586 0 0 1-5.594-3.103zm10.312-4.448v-.06c0-3.429-2.372-5.632-5.156-5.632a5.454 5.454 0 0 0-3.809 1.71 5.426 5.426 0 0 0-1.476 3.896v.06a5.41 5.41 0 0 0 1.461 3.918 5.437 5.437 0 0 0 3.824 1.713c2.887 0 5.181-2.091 5.181-5.58l-.025-.025z"/><path fill="#3B5CAD" d="M175.906 15.429V6.36h2.174v8.503c0 2.7 1.47 4.397 4.039 4.397a4.3 4.3 0 0 0 3.18-1.328 4.28 4.28 0 0 0 1.177-3.232V6.36h2.148v14.571h-2.148V18.36a5.563 5.563 0 0 1-5.002 2.846c-3.506.025-5.568-2.349-5.568-5.777zm16.491-9.069h2.174v3.806c1.074-2.452 3.188-4.166 5.955-4.055v2.332h-.172c-3.188 0-5.792 2.28-5.792 6.677v5.803h-2.174V6.35l.009.009z"/><path fill="#3B5CAD" fill-rule="nonzero" d="M201.944 23.46l.988-1.714a9.348 9.348 0 0 0 5.62 1.86c3.223 0 5.31-1.775 5.31-5.143v-1.714a6.93 6.93 0 0 1-5.731 3.068 6.763 6.763 0 0 1-4.898-1.972 6.728 6.728 0 0 1-1.977-4.885v-.034a6.859 6.859 0 0 1 4.811-6.635 6.884 6.884 0 0 1 7.753 2.692V6.36h2.174v12a7 7 0 0 1-1.865 5.143 7.686 7.686 0 0 1-5.56 1.946 11.467 11.467 0 0 1-6.625-1.989zm11.97-10.509v-.094c0-2.983-2.578-4.928-5.362-4.928a4.836 4.836 0 0 0-3.607 1.364 4.81 4.81 0 0 0-1.454 3.564v.06a4.922 4.922 0 0 0 1.477 3.542 4.948 4.948 0 0 0 3.575 1.412c2.776.009 5.371-1.988 5.371-4.92zM229.7 1.209h8.5a7.806 7.806 0 0 1 5.62 1.971 5.444 5.444 0 0 1 1.52 3.883v.06c0 3.266-2.26 5.143-5.362 5.743l6.067 8.057h-2.741l-5.732-7.663h-5.637v7.663H229.7V1.209zm8.336 10.054c2.965 0 5.078-1.517 5.078-4.054v-.06c0-2.426-1.864-3.892-5.052-3.892h-6.102v7.997h6.076v.009zm8.267 2.451v-.085c0-4.2 2.964-7.578 7.003-7.578 4.297 0 6.806 3.429 6.806 7.715a5.43 5.43 0 0 1 0 .703h-11.61a5.09 5.09 0 0 0 5.157 4.928 6.022 6.022 0 0 0 4.606-2.057l1.357 1.209a7.544 7.544 0 0 1-6.015 2.734 7.27 7.27 0 0 1-5.282-2.22 7.232 7.232 0 0 1-2.022-5.349zm11.61-.857c-.224-2.648-1.72-4.954-4.658-4.954-2.578 0-4.46 2.108-4.744 4.954h9.401zm4.717 10.603l.988-1.714a9.348 9.348 0 0 0 5.62 1.86c3.223 0 5.311-1.775 5.311-5.143v-1.714a6.93 6.93 0 0 1-5.732 3.068 6.763 6.763 0 0 1-4.897-1.972 6.728 6.728 0 0 1-1.977-4.885v-.034a6.859 6.859 0 0 1 4.81-6.635 6.884 6.884 0 0 1 7.753 2.692V6.36h2.2v12a7 7 0 0 1-1.865 5.143 7.686 7.686 0 0 1-5.56 1.946c-2.37.04-4.694-.655-6.651-1.989zm11.97-10.509v-.094c0-2.983-2.577-4.928-5.362-4.928a4.836 4.836 0 0 0-3.607 1.364 4.81 4.81 0 0 0-1.454 3.564v.06a4.922 4.922 0 0 0 1.477 3.542 4.948 4.948 0 0 0 3.576 1.412c2.775.009 5.37-1.988 5.37-4.92zM279.911.789h2.484V3.18h-2.484V.789zm.138 5.58h2.174V20.94h-2.174V6.369zm5.199 7.345v-.06c.12-4.094 3.474-7.354 7.58-7.37 4.106-.017 7.485 3.218 7.638 7.31v.06a7.55 7.55 0 0 1-2.231 5.401 7.59 7.59 0 0 1-5.425 2.202 7.486 7.486 0 0 1-5.373-2.184 7.447 7.447 0 0 1-2.19-5.359zm12.984 0v-.06a5.504 5.504 0 0 0-1.517-3.977 5.532 5.532 0 0 0-3.905-1.714 5.394 5.394 0 0 0-3.87 1.682 5.366 5.366 0 0 0-1.467 3.95v.06a5.452 5.452 0 0 0 1.502 3.966 5.48 5.48 0 0 0 3.895 1.699 5.395 5.395 0 0 0 3.877-1.664 5.366 5.366 0 0 0 1.485-3.942z"/><path fill="#3B5CAD" d="M302.134 6.36h2.174v2.571a5.528 5.528 0 0 1 5.001-2.845c3.532 0 5.594 2.365 5.594 5.828v9.009h-2.174V12.42c0-2.7-1.47-4.397-4.039-4.397a4.302 4.302 0 0 0-3.19 1.322 4.28 4.28 0 0 0-1.184 3.238v8.34h-2.174V6.35l-.008.009z"/><path fill="#3B5CAD" fill-rule="nonzero" d="M317.3 16.697v-.051c0-3.069 2.579-4.706 6.24-4.706 1.52-.016 3.034.192 4.494.617v-.506c0-2.622-1.607-3.968-4.348-3.968-1.54.017-3.057.384-4.434 1.071l-.654-1.774a12.056 12.056 0 0 1 5.311-1.209 6.42 6.42 0 0 1 4.718 1.603 5.742 5.742 0 0 1 1.495 4.286v8.863h-2.088v-2.194a6.408 6.408 0 0 1-5.285 2.511c-2.715-.009-5.448-1.526-5.448-4.543zm10.76-1.123V14.17a15.255 15.255 0 0 0-4.297-.618c-2.741 0-4.297 1.183-4.297 3.018v.06c0 1.834 1.72 2.897 3.67 2.897 2.715-.009 4.924-1.646 4.924-3.952z"/><path fill="#3B5CAD" d="M333.25.36h2.174v20.571h-2.174zM59.294 29.674h2.234v8.76h11.387v-8.76h2.234V49.39h-2.234v-8.872H61.503v8.872h-2.209z"/><path fill="#3B5CAD" fill-rule="nonzero" d="M77.203 42.154v-.06c0-4.2 2.964-7.577 7.003-7.577 4.297 0 6.806 3.429 6.806 7.714.015.234.015.47 0 .703h-11.6a5.09 5.09 0 0 0 5.155 4.929 6.022 6.022 0 0 0 4.606-2.057l1.358 1.208a7.544 7.544 0 0 1-6.015 2.735 7.262 7.262 0 0 1-5.3-2.223 7.224 7.224 0 0 1-2.013-5.372zm11.61-.857c-.224-2.648-1.72-4.954-4.658-4.954-2.578 0-4.46 2.108-4.744 4.954h9.401zm3.78 3.874v-.06c0-3.068 2.578-4.705 6.24-4.705a15.505 15.505 0 0 1 4.485.617v-.506c0-2.623-1.607-3.968-4.348-3.968a10.187 10.187 0 0 0-4.443 1.071l-.653-1.774a12.056 12.056 0 0 1 5.31-1.209 6.42 6.42 0 0 1 4.718 1.603 5.742 5.742 0 0 1 1.495 4.286v8.863h-2.088v-2.195a6.408 6.408 0 0 1-5.259 2.52c-2.715 0-5.457-1.56-5.457-4.543zm10.76-1.122v-1.415a15.255 15.255 0 0 0-4.297-.617c-2.742 0-4.297 1.183-4.297 3.017v.052c0 1.834 1.719 2.897 3.67 2.897 2.723.017 4.932-1.629 4.932-3.943l-.009.009z"/><path fill="#3B5CAD" d="M108.551 28.834h2.174v20.572h-2.174zm6.866 16.697v-8.785h-2.036v-1.912h2.036v-4.397h2.174v4.397h4.632v1.912h-4.632v8.503c0 1.774.989 2.425 2.458 2.425.735.004 1.46-.17 2.114-.505v1.86a5.494 5.494 0 0 1-2.63.617c-2.337 0-4.116-1.157-4.116-4.115zm9.513-16.697h2.174v8.572a5.528 5.528 0 0 1 5.002-2.846c3.531 0 5.594 2.366 5.594 5.829v9h-2.183v-8.503c0-2.7-1.47-4.397-4.039-4.397a4.302 4.302 0 0 0-3.19 1.322 4.28 4.28 0 0 0-1.184 3.238v8.34h-2.174V28.817v.017zm15.365 13.346v-.051a7.586 7.586 0 0 1 4.921-7.117 7.618 7.618 0 0 1 8.407 2.102l-1.435 1.517a5.9 5.9 0 0 0-4.434-2.194 5.394 5.394 0 0 0-3.797 1.722 5.366 5.366 0 0 0-1.428 3.91v.06a5.435 5.435 0 0 0 1.484 3.96 5.463 5.463 0 0 0 3.879 1.705 6.021 6.021 0 0 0 4.46-2.168l1.383 1.294a7.566 7.566 0 0 1-8.404 2.382 7.535 7.535 0 0 1-5.036-7.122z"/><path fill="#3B5CAD" fill-rule="nonzero" d="M155.093 45.171v-.06c0-3.068 2.578-4.705 6.239-4.705 1.52-.016 3.034.192 4.494.617v-.506c0-2.623-1.607-3.968-4.348-3.968-1.54.017-3.057.383-4.435 1.071l-.644-1.774a12.056 12.056 0 0 1 5.31-1.209 6.42 6.42 0 0 1 4.718 1.603 5.742 5.742 0 0 1 1.496 4.286v8.863h-2.071v-2.195a6.408 6.408 0 0 1-5.311 2.52c-2.707 0-5.448-1.56-5.448-4.543zm10.759-1.131v-1.406a15.246 15.246 0 0 0-4.297-.617c-2.741 0-4.297 1.183-4.297 3.017v.052c0 1.834 1.719 2.897 3.67 2.897 2.724.017 4.924-1.629 4.924-3.943z"/><path fill="#3B5CAD" d="M170.844 34.834h2.175v3.806c1.074-2.426 3.188-4.166 5.955-4.054v2.34h-.172c-3.188 0-5.792 2.28-5.792 6.677v5.803h-2.174V34.834h.008z"/><path fill="#3B5CAD" fill-rule="nonzero" d="M179.068 42.154v-.06c0-4.2 2.965-7.577 7.004-7.577 4.296 0 6.806 3.429 6.806 7.714.015.234.015.47 0 .703h-11.61a5.09 5.09 0 0 0 5.156 4.929 6.022 6.022 0 0 0 4.606-2.057l1.358 1.208a7.544 7.544 0 0 1-6.015 2.735 7.27 7.27 0 0 1-5.292-2.229 7.232 7.232 0 0 1-2.013-5.366zm11.61-.857c-.224-2.648-1.719-4.954-4.658-4.954-2.578 0-4.46 2.108-4.743 4.954h9.4z"/><path fill="#3B5CAD" d="M204.23 46.517l1.383-1.637a9.465 9.465 0 0 0 6.78 2.786c2.656 0 4.409-1.406 4.409-3.352v-.051c0-1.834-.989-2.872-5.156-3.746-4.546-.986-6.634-2.451-6.634-5.691v-.052c0-3.094 2.74-5.383 6.496-5.383 2.535-.07 5.007.794 6.944 2.426l-1.298 1.714a8.7 8.7 0 0 0-5.706-2.142c-2.578 0-4.21 1.405-4.21 3.18v.06c0 1.86 1.013 2.897 5.361 3.831 4.349.934 6.437 2.571 6.437 5.58v.06c0 3.377-2.827 5.58-6.746 5.58a11.583 11.583 0 0 1-8.06-3.163zm27.25-11.683h2.32l-6.128 15.043c-1.246 3.017-2.655 4.114-4.855 4.114a6.648 6.648 0 0 1-3.102-.737l.739-1.714c.702.373 1.49.556 2.286.531 1.297 0 2.114-.677 2.99-2.734l-6.634-14.503h2.398l5.31 12.137 4.675-12.137zm2.26 12.703l1.1-1.551a8.555 8.555 0 0 0 5.052 1.86c1.719 0 3.025-.9 3.025-2.306v-.06c0-1.466-1.719-2.031-3.644-2.571-2.286-.652-4.83-1.44-4.83-4.115v-.051c0-2.512 2.089-4.166 4.968-4.166 1.866.035 3.685.59 5.25 1.603l-.988 1.637a8.273 8.273 0 0 0-4.297-1.406c-1.718 0-2.818.9-2.818 2.109v.051c0 1.38 1.804 1.912 3.755 2.503 2.26.677 4.683 1.552 4.683 4.166v.06c0 2.76-2.285 4.363-5.156 4.363a10.053 10.053 0 0 1-6.1-2.126zm15.218-2.006v-8.785h-2.037v-1.912h2.037v-4.397h2.174v4.397h4.632v1.912h-4.632v8.503c0 1.774.988 2.425 2.458 2.425.735.004 1.46-.17 2.114-.505v1.86a5.494 5.494 0 0 1-2.63.617c-2.337 0-4.116-1.157-4.116-4.115z"/><path fill="#3B5CAD" fill-rule="nonzero" d="M256.58 42.154v-.06c0-4.2 2.965-7.577 7.004-7.577 4.297 0 6.806 3.429 6.806 7.714.014.234.014.47 0 .703h-11.601a5.09 5.09 0 0 0 5.156 4.929 6.022 6.022 0 0 0 4.606-2.057l1.358 1.208a7.544 7.544 0 0 1-6.016 2.735 7.262 7.262 0 0 1-5.3-2.223 7.224 7.224 0 0 1-2.013-5.372zm11.601-.857c-.223-2.648-1.718-4.954-4.657-4.954-2.578 0-4.46 2.108-4.744 4.954h9.401z"/><path fill="#3B5CAD" d="M272.512 34.834h2.174v2.452a5.339 5.339 0 0 1 4.718-2.76 4.96 4.96 0 0 1 4.692 2.897 5.82 5.82 0 0 1 5.156-2.897c3.36 0 5.423 2.254 5.423 5.854v9.009H292.5v-8.503c0-2.82-1.409-4.397-3.78-4.397-2.2 0-4.014 1.637-4.014 4.508v8.392h-2.174v-8.572c0-2.734-1.444-4.337-3.755-4.337-2.312 0-4.065 1.911-4.065 4.594v8.306h-2.174V34.809l-.026.025z"/></g></svg>